<?xml version="1.0" standalone="no"?>
<!DOCTYPE svg PUBLIC "-//W3C//DTD SVG 20010904//EN"
 "http://www.w3.org/TR/2001/REC-SVG-20010904/DTD/svg10.dtd">
<svg version="1.0" xmlns="http://www.w3.org/2000/svg"
 width="1280.000000pt" height="1280.000000pt" viewBox="0 0 1280.000000 1280.000000"
 preserveAspectRatio="xMidYMid meet">
<metadata>
Created by potrace 1.11, written by Peter Selinger 2001-2013
</metadata>
<g transform="translate(0.000000,1280.000000) scale(0.100000,-0.100000)"
fill="#000000" stroke="none">
<path d="M0 6400 l0 -6400 6400 0 6400 0 0 6400 0 6400 -6400 0 -6400 0 0
-6400z m8198 1875 c70 -30 121 -102 122 -172 0 -32 7 -37 48 -36 6 1 12 -10
12 -23 0 -15 -6 -24 -16 -24 -8 0 -13 4 -10 9 6 10 -24 25 -32 16 -3 -2 1 -11
7 -19 7 -9 8 -17 2 -20 -5 -3 -12 -34 -16 -68 -28 -253 -144 -631 -290 -942
-79 -170 -75 -149 -75 -367 0 -182 -5 -221 -25 -189 -8 14 -78 13 -92 -1 -6
-6 -16 -8 -21 -5 -14 8 -4 78 13 91 6 6 15 17 18 25 7 15 2 -19 -9 -65 -6 -24
-5 -25 27 -19 42 8 58 21 36 30 -24 9 -21 34 3 34 17 0 20 7 21 53 1 28 0 68
-1 87 0 20 3 48 9 63 6 15 7 27 2 27 -5 0 -32 -48 -61 -107 -28 -60 -58 -115
-66 -124 -9 -10 -28 -42 -44 -73 l-29 -56 57 -1 c49 0 54 -2 34 -11 -24 -12
-37 -47 -29 -78 7 -29 -35 -54 -94 -56 -26 -1 -52 -5 -57 -8 -10 -6 -92 -127
-152 -226 -57 -94 -77 -110 -132 -110 -43 0 -48 -2 -54 -26 -4 -15 -4 -92 0
-173 4 -80 7 -158 6 -172 0 -22 3 -26 24 -22 18 4 25 0 29 -17 5 -18 2 -21
-13 -17 -27 7 -32 -27 -16 -119 36 -199 99 -304 184 -304 80 0 219 78 278 155
28 38 27 54 -3 36 -10 -6 -13 -11 -8 -11 6 0 3 -5 -5 -10 -8 -5 -71 -9 -140
-8 -79 1 -108 3 -80 7 42 6 40 7 -40 15 -47 5 -98 9 -113 9 -21 0 -25 3 -17
11 7 7 87 12 232 13 122 2 222 4 223 5 61 94 141 267 155 336 12 57 11 64 -5
82 -10 11 -22 20 -28 20 -5 0 -29 18 -55 40 -25 22 -47 38 -50 35 -3 -3 5 -13
17 -23 13 -9 37 -30 53 -45 30 -28 30 -30 26 -114 -4 -78 -7 -86 -33 -107 -21
-17 -26 -27 -21 -44 9 -29 -12 -71 -26 -51 -7 10 -8 6 -4 -13 4 -16 2 -28 -4
-28 -5 0 -10 6 -11 13 0 6 -6 -3 -13 -22 -7 -19 -18 -37 -24 -39 -9 -3 -12 64
-12 271 l0 275 -36 47 c-50 66 -74 127 -74 189 0 61 19 105 61 140 48 41 169
48 208 12 9 -8 37 -33 62 -55 80 -71 131 -192 143 -341 7 -94 12 -101 93 -140
62 -29 115 -26 179 11 l54 31 -7 66 c-13 112 -7 321 10 376 15 46 15 52 -1 78
-9 15 -20 28 -23 28 -4 0 -3 14 2 32 10 37 5 46 -17 28 -11 -10 -14 -23 -9
-49 4 -20 11 -40 16 -45 5 -6 9 -14 9 -18 0 -4 -105 -8 -232 -8 -187 0 -239 3
-262 15 -15 8 -35 15 -42 15 -9 0 -14 11 -14 31 0 39 -16 68 -43 79 -14 6 103
9 303 9 179 0 335 3 345 7 16 6 14 0 -9 -24 -26 -28 -28 -35 -19 -64 l10 -33
13 30 c6 17 16 38 21 47 5 10 9 26 9 37 0 11 10 32 23 48 12 15 29 42 37 58 8
17 22 42 32 57 22 32 23 42 3 35 -22 -9 -30 13 -12 31 15 14 17 14 23 -1 9
-25 22 -21 40 16 24 46 146 189 196 230 98 79 167 107 259 107 160 -1 253
-137 215 -316 -19 -88 -49 -167 -120 -314 -31 -63 -25 -76 31 -79 75 -2 63
-11 -15 -11 l-72 0 -61 -77 c-64 -82 -398 -427 -439 -454 l-24 -15 32 -55 c38
-67 107 -134 191 -188 88 -56 173 -81 277 -81 125 0 203 24 414 128 l115 57
100 0 c86 0 105 -3 138 -23 56 -33 165 -124 172 -144 4 -10 12 -18 19 -18 8 0
33 -11 57 -24 107 -60 285 -80 599 -66 118 5 379 14 580 20 201 6 506 18 677
26 172 9 326 13 342 9 63 -14 97 -90 52 -115 -11 -6 -89 -10 -183 -10 -90 0
-264 -4 -388 -10 -124 -5 -335 -15 -470 -20 -135 -6 -397 -17 -584 -26 -550
-25 -599 -13 -902 224 -91 71 -108 70 -272 -12 -70 -35 -165 -76 -212 -91
-126 -41 -134 -46 -65 -42 33 3 69 1 80 -4 23 -9 14 -9 -258 -12 -103 -1 -187
1 -187 6 0 4 10 7 23 7 18 0 19 2 7 10 -8 5 -24 10 -36 10 -34 0 -195 84 -260
136 -53 42 -132 135 -169 199 -10 17 -13 16 -50 -7 -38 -23 -60 -30 -144 -45
-38 -6 -129 11 -179 34 -19 8 -35 13 -36 11 -1 -1 -12 -37 -25 -78 -13 -41
-41 -112 -63 -158 -22 -46 -39 -85 -36 -87 2 -2 20 0 39 6 24 8 63 8 124 1 64
-6 76 -10 43 -11 -26 0 -49 -5 -52 -10 -3 -4 -45 -11 -93 -14 -85 -5 -89 -6
-113 -39 -90 -120 -192 -203 -305 -249 -86 -34 -200 -34 -269 1 -71 36 -129
106 -161 195 -23 61 -32 75 -49 75 -32 0 -66 11 -66 21 0 5 19 6 42 3 40 -7
41 -6 35 17 -11 39 -30 162 -30 192 0 30 -8 34 -27 12 -17 -21 -30 -19 -30 5
0 15 7 20 26 20 l26 0 -8 93 c-3 50 -8 94 -10 96 -6 7 -56 -39 -85 -79 -28
-38 -87 -76 -99 -63 -3 3 0 8 6 10 6 2 20 10 30 18 18 14 17 14 -8 6 -14 -6
-47 -26 -73 -45 -114 -87 -242 -103 -333 -41 -32 22 -35 22 -63 7 -16 -10 -29
-22 -29 -28 0 -17 -26 -24 -38 -12 -8 8 -8 17 -1 30 6 11 8 22 5 25 -8 8 -36
-17 -36 -32 0 -12 -256 -103 -274 -97 -5 2 -21 -8 -35 -21 -44 -41 -133 -102
-196 -135 -49 -26 -72 -32 -124 -32 -35 0 -81 5 -102 11 -49 15 -116 80 -141
136 -21 48 -25 51 -44 26 -7 -10 -16 -14 -21 -10 -4 5 3 16 15 26 20 14 22 21
13 42 -22 51 -41 196 -41 313 0 104 11 195 36 309 9 38 -2 34 -25 -10 -20 -40
-222 -272 -376 -432 -90 -94 -192 -185 -217 -194 -10 -4 -11 -7 0 -18 14 -16
16 -39 2 -39 -5 0 -10 7 -10 15 0 20 -19 19 -61 -2 -49 -25 -141 -29 -183 -9
-80 38 -135 149 -122 250 4 28 21 102 40 164 18 62 30 114 26 117 -6 4 -69
-68 -125 -145 -93 -127 -369 -414 -452 -470 -121 -82 -219 -110 -316 -89 -107
22 -185 93 -224 204 -24 66 -23 231 1 338 10 43 16 81 13 83 -2 2 -20 -28 -40
-68 -35 -72 -58 -107 -127 -193 -81 -101 -128 -153 -182 -200 -82 -72 -86 -75
-92 -75 -3 0 -24 -13 -48 -28 -55 -37 -135 -68 -223 -88 -74 -16 -441 -26
-1435 -39 -261 -3 -567 -10 -679 -16 l-205 -12 -18 23 c-24 29 -23 72 2 95 18
16 33 17 147 12 71 -4 310 -2 533 3 223 5 639 14 925 20 644 14 750 27 877
107 47 29 56 29 70 -2 13 -28 34 -35 23 -7 -19 46 -17 51 69 136 76 76 156
183 218 295 88 158 118 198 281 366 93 96 174 175 180 175 6 0 41 30 79 66 56
55 73 65 94 61 21 -4 25 -1 21 14 -6 22 33 59 130 122 178 116 310 161 478
161 127 1 181 -17 249 -82 47 -45 96 -144 96 -194 0 -87 -117 -91 -135 -5 -11
50 -53 115 -86 132 -120 63 -396 -17 -601 -173 l-48 -36 20 -21 c24 -26 25
-31 3 -39 -9 -4 -25 2 -38 14 l-21 20 -75 -78 c-96 -100 -114 -122 -172 -209
-126 -190 -200 -461 -168 -612 22 -102 99 -163 184 -147 128 24 393 267 611
561 115 155 113 154 154 160 58 10 65 13 96 40 16 14 32 25 36 25 4 0 15 21
24 48 10 26 26 64 37 85 10 22 19 47 19 58 0 40 71 52 114 18 40 -32 35 -72
-28 -197 -65 -129 -149 -372 -172 -499 -20 -107 -11 -143 34 -143 60 0 113 36
82 55 -15 9 -12 25 4 25 8 0 18 -14 21 -32 9 -41 35 -92 42 -84 4 3 -2 24 -13
47 l-18 41 39 31 c75 59 208 192 324 326 179 205 206 238 293 351 70 92 84
105 110 105 28 0 31 4 77 120 60 151 108 243 133 256 38 21 108 -14 108 -53 0
-11 -15 -47 -34 -81 -73 -131 -180 -419 -226 -612 -45 -186 -17 -499 52 -586
7 -9 28 -24 46 -33 31 -16 37 -16 80 -1 92 31 237 149 326 264 22 30 56 73 73
95 57 72 107 148 162 246 30 52 61 101 69 108 23 17 79 15 86 -4 8 -21 26 -8
26 20 0 13 8 47 17 76 16 49 16 54 0 82 -18 32 -15 48 9 48 9 0 14 11 14 35 0
43 28 58 85 45 44 -10 60 -32 56 -77 -2 -28 1 -33 19 -33 25 0 38 -27 20 -43
-10 -9 -14 -9 -17 1 -19 51 -47 -44 -98 -323 -21 -116 -24 -150 -15 -193 22
-118 41 -119 210 -19 34 21 170 125 180 139 8 10 60 12 93 3 l27 -7 0 103 c0
270 57 687 136 999 101 397 276 791 503 1135 36 55 81 117 99 137 84 93 208
131 300 93z m-308 -1665 c-6 -12 -14 -20 -17 -17 -2 3 1 14 8 26 17 26 24 19
9 -9z m-3950 -136 c0 -16 -2 -16 -24 -8 -13 5 -14 9 -5 20 13 16 29 9 29 -12z
m3193 -81 c-13 -2 -35 -2 -50 0 -16 2 -5 4 22 4 28 0 40 -2 28 -4z m755 -35
c15 -15 16 -45 2 -53 -6 -4 -9 4 -7 17 1 17 -4 24 -22 26 -21 3 -23 0 -19 -22
3 -17 1 -26 -7 -26 -21 0 -27 32 -9 51 20 22 45 24 62 7z m-3851 -80 c-3 -8
-6 -5 -6 6 -1 11 2 17 5 13 3 -3 4 -12 1 -19z m2783 12 c0 -5 -5 -10 -11 -10
-5 0 -7 5 -4 10 3 6 8 10 11 10 2 0 4 -4 4 -10z m320 -20 c0 -6 -37 -10 -92
-10 -64 0 -88 3 -78 10 20 13 170 13 170 0z m-285 -67 c-7 -50 -26 -73 -57
-73 -27 0 -22 10 13 22 27 9 30 15 29 47 -2 48 -2 51 11 51 7 0 8 -16 4 -47z
m-2105 -453 c0 -5 -4 -10 -10 -10 -5 0 -10 5 -10 10 0 6 5 10 10 10 6 0 10 -4
10 -10z m2350 -282 c0 -5 -4 -8 -10 -8 -5 0 -10 10 -10 23 0 18 2 19 10 7 5
-8 10 -18 10 -22z m-1398 -3 c-4 -25 -13 -31 -25 -19 -6 7 14 44 24 44 3 0 4
-11 1 -25z m178 -75 c-28 -21 -104 -44 -94 -28 8 13 84 48 104 48 10 0 6 -7
-10 -20z m-940 -54 c0 -3 -4 -8 -10 -11 -5 -3 -10 -1 -10 4 0 6 5 11 10 11 6
0 10 -2 10 -4z m-333 -28 c-3 -8 -6 -5 -6 6 -1 11 2 17 5 13 3 -3 4 -12 1 -19z
m938 -27 c3 -5 1 -12 -4 -15 -5 -4 -12 -2 -16 3 -3 6 -12 8 -19 5 -8 -3 -17
-1 -21 5 -4 7 5 11 24 11 16 0 32 -4 36 -9z m3045 -21 c0 -5 -4 -10 -9 -10 -6
0 -13 5 -16 10 -3 6 1 10 9 10 9 0 16 -4 16 -10z m304 4 c29 -11 17 -24 -21
-23 -21 1 -29 4 -19 6 15 4 16 7 5 14 -11 7 -11 9 3 9 9 0 23 -3 32 -6z m1156
2 c0 -3 -4 -8 -10 -11 -5 -3 -10 -1 -10 4 0 6 5 11 10 11 6 0 10 -2 10 -4z
m-4432 -24 c3 -9 -2 -13 -14 -10 -9 1 -19 9 -22 16 -3 9 2 13 14 10 9 -1 19
-9 22 -16z m1847 -21 c-6 -6 -25 -6 -45 -1 l-35 8 45 1 c27 1 40 -3 35 -8z
m-1466 -11 c-9 -5 -36 -12 -60 -14 -24 -3 -35 -3 -24 0 11 3 24 10 30 15 5 5
23 9 40 9 23 -1 26 -3 14 -10z"/>
<path d="M8033 8108 c-39 -40 -80 -91 -92 -113 -11 -22 -30 -51 -40 -65 -42
-55 -119 -179 -129 -208 -10 -29 -9 -32 11 -33 55 -4 103 4 120 18 9 9 17 12
17 7 0 -5 8 -10 18 -10 9 -1 38 -4 65 -8 44 -6 47 -5 48 16 0 15 2 18 6 8 3
-8 12 -19 20 -23 35 -21 -8 -28 -162 -27 -90 1 -169 -1 -174 -4 -8 -6 -111
-210 -111 -221 0 -2 -13 -32 -29 -67 -35 -77 -104 -271 -126 -353 -9 -33 -23
-82 -31 -110 -28 -100 -87 -392 -95 -475 -4 -47 -13 -123 -19 -169 -15 -117 0
-124 34 -16 9 28 32 82 51 119 19 38 32 73 29 77 -13 22 -33 5 -44 -38 -8 -29
-15 -41 -17 -30 -3 9 1 34 8 54 9 29 9 38 0 41 -9 3 -6 11 8 26 11 11 33 57
49 101 102 271 139 338 261 473 57 63 119 128 138 145 25 22 31 33 22 43 -8
10 -2 17 30 33 22 12 46 21 53 21 7 1 26 11 41 24 22 18 39 53 73 157 25 74
49 152 54 174 4 22 18 83 30 135 30 137 34 266 5 220 -11 -17 -36 -11 -33 8 2
9 -3 16 -9 15 -7 -2 -13 2 -13 7 0 6 18 10 40 10 36 0 40 2 40 26 0 28 -16 65
-34 76 -25 17 -46 5 -113 -64z m44 -305 c-8 -7 -108 -5 -116 3 -2 2 24 4 59 4
35 0 60 -3 57 -7z m43 -2 c0 -6 -4 -13 -10 -16 -5 -3 -10 1 -10 9 0 9 5 16 10
16 6 0 10 -4 10 -9z m-260 -15 c0 -2 -9 -6 -20 -9 -11 -3 -18 -1 -14 4 5 9 34
13 34 5z m25 -26 c3 -5 1 -10 -4 -10 -6 0 -11 5 -11 10 0 6 2 10 4 10 3 0 8
-4 11 -10z m-50 -40 c4 0 16 5 28 12 20 10 21 10 8 -6 -21 -25 -55 -17 -58 14
-3 25 -3 25 7 3 5 -13 12 -23 15 -23z m105 -222 c0 -98 -3 -138 -12 -138 -8 0
-9 31 -5 115 4 63 4 122 1 130 -4 9 -19 15 -39 15 -47 0 -65 -9 -66 -34 0 -20
-1 -20 -9 -1 -20 45 -14 50 60 50 l70 0 0 -137z m-123 -70 c2 -46 5 -87 5 -93
1 -19 -13 -109 -17 -114 -3 -2 -5 65 -5 149 0 162 10 197 17 58z"/>
<path d="M7943 7303 c-20 -7 -15 -23 6 -23 10 0 21 7 25 15 5 15 -7 18 -31 8z"/>
<path d="M7820 7119 c0 -7 -18 -27 -39 -46 -55 -47 -113 -137 -226 -353 -53
-102 -101 -189 -106 -194 -17 -19 -10 -37 14 -34 12 2 21 6 20 10 -3 7 111
233 184 368 63 117 105 172 149 198 49 31 52 37 24 52 -15 8 -20 8 -20 -1z"/>
<path d="M9105 6829 c-48 -23 -181 -152 -237 -229 -23 -30 -48 -61 -57 -68
-14 -12 -13 -16 17 -41 33 -28 42 -56 20 -64 -7 -2 -25 9 -39 24 l-26 29 -40
-83 c-47 -96 -63 -139 -42 -119 7 6 23 12 35 12 12 0 24 5 26 12 3 9 20 9 74
0 38 -7 84 -15 102 -18 17 -4 32 -10 32 -14 0 -14 -49 -19 -170 -18 -112 1
-115 0 -127 -23 -7 -13 -13 -32 -13 -42 0 -10 -4 -26 -9 -35 -10 -20 -22 -234
-13 -230 4 2 52 39 107 83 186 149 369 389 441 581 44 118 58 220 34 249 -17
21 -67 18 -115 -6z m-56 -444 c-15 -15 -48 -18 -119 -12 -19 2 -53 4 -75 5
-30 2 -36 5 -25 12 8 5 64 10 125 10 98 0 108 -2 94 -15z"/>
<path d="M8830 6450 c0 -5 5 -10 10 -10 6 0 10 5 10 10 0 6 -4 10 -10 10 -5 0
-10 -4 -10 -10z"/>
<path d="M7705 6350 c-33 -53 -40 -70 -26 -70 12 0 65 99 57 107 -2 3 -16 -14
-31 -37z"/>
<path d="M7840 6138 c0 -7 9 -28 20 -46 16 -26 24 -31 34 -23 10 9 15 8 20 -4
6 -17 26 -21 26 -5 0 5 -16 28 -36 50 -36 40 -64 52 -64 28z"/>
<path d="M7899 6033 c12 -23 29 -38 37 -31 2 3 -8 15 -22 29 -25 23 -26 23
-15 2z"/>
<path d="M7954 6024 c3 -9 6 -29 6 -44 0 -31 49 -99 50 -69 0 18 -17 74 -33
107 -12 25 -32 31 -23 6z"/>
<path d="M4615 6010 c3 -5 8 -10 11 -10 2 0 4 5 4 10 0 6 -5 10 -11 10 -5 0
-7 -4 -4 -10z"/>
<path d="M6417 5748 c-52 -79 -116 -167 -141 -196 -53 -61 -58 -79 -18 -58 31
16 208 56 248 56 24 0 26 3 20 28 -27 115 -30 153 -17 228 7 41 11 78 8 80 -2
3 -47 -60 -100 -138z"/>
<path d="M5585 5439 c-10 -15 3 -25 16 -12 7 7 7 13 1 17 -6 3 -14 1 -17 -5z"/>
<path d="M7650 5240 c0 -5 5 -10 11 -10 5 0 7 5 4 10 -3 6 -8 10 -11 10 -2 0
-4 -4 -4 -10z"/>
<path d="M7693 5243 c9 -2 25 -2 35 0 9 3 1 5 -18 5 -19 0 -27 -2 -17 -5z"/>
</g>
</svg>
